<svg xmlns="http://www.w3.org/2000/svg" viewBox="0 0 221.253 50"><defs><style>.cls-2{fill:#ff1919;fill-rule:evenodd}</style></defs><g id="logo_projectday" transform="translate(.02 -.006)"><path id="Path_1" data-name="Path 1" d="M1872.6 270.277h5.569a2.573 2.573 0 0 0 1.39-.372 2.448 2.448 0 0 0 .928-1.051 3.573 3.573 0 0 0 .331-1.57 3.578 3.578 0 0 0-.331-1.582 2.5 2.5 0 0 0-.928-1.059 2.539 2.539 0 0 0-1.39-.376h-5.569v-2.327h5.487a5.5 5.5 0 0 1 2.743.667 4.6 4.6 0 0 1 1.836 1.872 5.8 5.8 0 0 1 .654 2.8 5.746 5.746 0 0 1-.654 2.8 4.575 4.575 0 0 1-1.836 1.86 5.541 5.541 0 0 1-2.743.662h-5.487zm-1.259-8.337h2.445v17.418h-2.445zm15.877 7.728h5.941a2.272 2.272 0 0 0 1.235-.336 2.207 2.207 0 0 0 .834-.953 3.313 3.313 0 0 0 .291-1.419 3.3 3.3 0 0 0-.291-1.419 2.2 2.2 0 0 0-.83-.953 2.26 2.26 0 0 0-1.239-.335h-5.941v-2.326h5.847a5.453 5.453 0 0 1 2.654.625 4.336 4.336 0 0 1 1.77 1.766 5.372 5.372 0 0 1 .63 2.641 5.384 5.384 0 0 1-.634 2.641 4.458 4.458 0 0 1-1.779 1.766 5.468 5.468 0 0 1-2.641.621h-5.847v-2.322zm-1.067-7.74h2.445v17.43h-2.445zm5.81 9.522l2.433-.548 4.457 8.455h-2.9l-3.99-7.907zm15.485 8.087a6.353 6.353 0 0 1-3.214-.8 5.434 5.434 0 0 1-2.146-2.253 7.168 7.168 0 0 1-.76-3.369v-4.935a7.175 7.175 0 0 1 .76-3.373 5.461 5.461 0 0 1 2.146-2.253 6.868 6.868 0 0 1 6.424 0 5.471 5.471 0 0 1 2.15 2.253 7.174 7.174 0 0 1 .76 3.373v4.935a7.168 7.168 0 0 1-.76 3.369 5.447 5.447 0 0 1-2.15 2.253 6.346 6.346 0 0 1-3.212.801zm0-2.408a3.666 3.666 0 0 0 1.9-.487 3.232 3.232 0 0 0 1.267-1.378 4.479 4.479 0 0 0 .45-2.065v-5.1a4.493 4.493 0 0 0-.45-2.065 3.233 3.233 0 0 0-1.267-1.378 3.949 3.949 0 0 0-3.8 0 3.236 3.236 0 0 0-1.268 1.378 4.49 4.49 0 0 0-.45 2.065v5.1a4.481 4.481 0 0 0 .45 2.065 3.239 3.239 0 0 0 1.268 1.378 3.672 3.672 0 0 0 1.898.487zm11.9 2.408a5.753 5.753 0 0 1-2.552-.564 4.925 4.925 0 0 1-1.893-1.578l2-1.439a2.3 2.3 0 0 0 .969.911 3.256 3.256 0 0 0 1.476.323 2.8 2.8 0 0 0 2.208-.887 3.638 3.638 0 0 0 .785-2.49V261.94h2.445v11.882a6.929 6.929 0 0 1-.634 3.091 4.391 4.391 0 0 1-1.86 1.954 6.044 6.044 0 0 1-2.944.671zm9.286-17.6h2.445v17.418h-2.445zm1.186 15.1h10.005v2.322h-10.005zm0-7.486h8.684v2.322h-8.684zm0-7.609h10.005v2.327h-10.005zm18.719 17.6a6.181 6.181 0 0 1-3.181-.8 5.451 5.451 0 0 1-2.126-2.278 7.4 7.4 0 0 1-.752-3.414v-4.78a7.393 7.393 0 0 1 .752-3.414 5.49 5.49 0 0 1 2.126-2.282 6.142 6.142 0 0 1 3.181-.809 6.007 6.007 0 0 1 2.756.642 5.785 5.785 0 0 1 2.1 1.815 6.8 6.8 0 0 1 1.145 2.719h-2.506a3.841 3.841 0 0 0-.76-1.455 3.725 3.725 0 0 0-1.251-.989 3.369 3.369 0 0 0-4.6 1.611 4.994 4.994 0 0 0-.441 2.163v4.78a4.992 4.992 0 0 0 .441 2.155 3.351 3.351 0 0 0 1.247 1.443 3.414 3.414 0 0 0 1.868.511 3.567 3.567 0 0 0 1.492-.323 3.506 3.506 0 0 0 1.243-.961 3.753 3.753 0 0 0 .76-1.509h2.506a6.74 6.74 0 0 1-1.153 2.719 5.8 5.8 0 0 1-2.106 1.815 5.932 5.932 0 0 1-2.743.642zm11.543-16.171h2.441v15.991h-2.441zm-4.927-1.427h12.291v2.327h-12.291zm15.4 19.823h3.941a4.18 4.18 0 0 0 2.985-1 3.7 3.7 0 0 0 1.063-2.821v-5.127a3.7 3.7 0 0 0-1.063-2.821 4.181 4.181 0 0 0-2.985-1h-3.941v-2.327h3.868a8.048 8.048 0 0 1 3.581.732 5.1 5.1 0 0 1 2.265 2.13 6.858 6.858 0 0 1 .777 3.381v4.935a6.854 6.854 0 0 1-.777 3.377 5.077 5.077 0 0 1-2.274 2.13 8.1 8.1 0 0 1-3.586.732h-3.855v-2.322zm-1.656-15.1h2.445v17.418h-2.442zm20.027 0h2.081l6.424 17.418h-2.637l-4.829-14.053-4.825 14.053h-2.638zm-3.463 11.272h9.163v2.322h-9.163zm18.061-.932v7.077h-2.445v-7.077l-5.307-10.34h2.719l3.811 7.859 3.806-7.859h2.719l-5.3 10.34z" transform="translate(-1787.592 -250.037)" fill="#2a2a2a"/><path id="Path_2" data-name="Path 2" class="cls-2" d="M4058.44 265.78h-40.22v2.327h40.22a1.163 1.163 0 0 0 0-2.327z" transform="translate(-3838.371 -253.877)"/><path id="Path_3" data-name="Path 3" class="cls-2" d="M1968.888 708.52h-96.395a1.163 1.163 0 0 0 0 2.327h96.395z" transform="translate(-1787.583 -676.798)"/><path id="Path_4" data-name="Path 4" class="cls-2" d="M63.22 34.048H43.662L28.045 49.666A1.163 1.163 0 0 1 26.4 48.02l.041-.039 14.739-14.7-1.48-1.55L22.2 14.23H1.143a1.163 1.163 0 1 1 0-2.327h18.728L9.96 1.993A1.164 1.164 0 0 1 11.605.347L23.162 11.9h40.057a2.646 2.646 0 0 1 1.787.386 2.645 2.645 0 0 1 .386 1.787v17.8a2.645 2.645 0 0 1-.386 1.787 2.645 2.645 0 0 1-1.787.386zM46.478 14.23H25.489l17.5 17.5h20.086V14.222h-16.6v.009z"/></g></svg>